<?xml version="1.0" encoding="UTF-8"?>
<svg width="20px" height="20px" viewBox="0 0 20 20" version="1.1" xmlns="http://www.w3.org/2000/svg" xmlns:xlink="http://www.w3.org/1999/xlink">
    <!-- Generator: Sketch 40.3 (33839) - http://www.bohemiancoding.com/sketch -->
    <title>Star</title>
    <desc>Created with Sketch.</desc>
    <defs></defs>
    <g id="Welcome" stroke="none" stroke-width="1" fill="none" fill-rule="evenodd">
        <g id="Desktop" transform="translate(-469.000000, -467.000000)" fill="#F18F01">
            <path d="M481.09358,484.194581 C480.133859,483.656436 478.578919,483.655833 477.618125,484.194581 L474.544922,485.917824 C473.585202,486.45597 472.981438,486.018692 473.196916,484.938441 L473.886146,481.483139 C474.101383,480.404095 473.621453,478.925073 472.812171,478.177786 L470.223598,475.787507 C469.415221,475.041055 469.644524,474.331716 470.73849,474.202831 L474.237661,473.790581 C475.330405,473.66184 476.588732,472.748357 477.049362,471.74776 L478.522739,468.547243 C478.982855,467.547765 479.728335,467.546647 480.188966,468.547243 L481.662343,471.74776 C482.122459,472.747238 483.380078,473.661696 484.474044,473.790581 L487.973215,474.202831 C489.065959,474.331572 489.297388,475.04022 488.488107,475.787507 L485.899534,478.177786 C485.091157,478.924238 484.610081,480.402888 484.825559,481.483139 L485.514789,484.938441 C485.730026,486.017485 485.127577,486.456572 484.166783,485.917824 L481.09358,484.194581 Z" id="Star"></path>
        </g>
    </g>
</svg>